<?xml version="1.0" encoding="utf-8"?>
<!-- Generator: Adobe Illustrator 22.1.0, SVG Export Plug-In . SVG Version: 6.00 Build 0)  -->
<svg version="1.1" id="Layer_1" xmlns="http://www.w3.org/2000/svg" xmlns:xlink="http://www.w3.org/1999/xlink" x="0px" y="0px"
	 viewBox="0 0 500 250" style="enable-background:new 0 0 500 250;" xml:space="preserve">
<style type="text/css">
	.st0{fill:#0E0333;}
	.st1{fill:#15EBB7;}
</style>
<g>
	<path class="st0" d="M182.8,129.9h24.7c0,2.5-0.1,4.9-0.3,6.9c-0.2,2.1-0.6,4-1.3,5.7c-0.9,2.5-2.1,4.7-3.6,6.7
		c-1.5,1.9-3.3,3.5-5.4,4.8c-2,1.3-4.3,2.3-6.8,2.9c-2.5,0.7-5.1,1-7.8,1c-3.7,0-7.1-0.6-10.2-1.8c-3-1.2-5.7-3-7.9-5.1
		c-2.2-2.3-3.9-4.9-5.1-8c-1.2-3.2-1.8-6.6-1.8-10.4c0-3.7,0.6-7.1,1.8-10.2c1.2-3.2,3-5.8,5.1-8c2.3-2.2,4.9-3.9,8.1-5.1
		c3.2-1.2,6.6-1.8,10.5-1.8c5,0,9.4,1.1,13.1,3.2c3.8,2.1,6.8,5.5,9,10l-11.8,4.9c-1.1-2.7-2.5-4.5-4.3-5.6
		c-1.7-1.1-3.7-1.7-5.9-1.7c-1.8,0-3.5,0.4-5.1,1.1c-1.5,0.7-2.8,1.6-3.9,3c-1.1,1.3-1.9,2.8-2.5,4.6c-0.6,1.8-0.9,3.9-0.9,6.1
		c0,2,0.3,3.9,0.8,5.6c0.6,1.7,1.3,3.2,2.4,4.5c1.1,1.3,2.4,2.3,3.9,3c1.6,0.7,3.4,1,5.4,1c1.2,0,2.4-0.1,3.5-0.4
		c1.1-0.3,2.1-0.8,3-1.3c0.9-0.6,1.7-1.5,2.3-2.4c0.6-0.9,1-2.1,1.2-3.5h-10.2V129.9z M269,118.9V158h-13.3v-39.2h-10.7v-11.4h34.7
		v11.4H269z M325.8,124.8c-2.9-3.5-6.4-5.3-10.7-5.3c-1.9,0-3.6,0.3-5.2,1c-1.6,0.7-2.9,1.6-4.1,2.8c-1.1,1.1-2.1,2.5-2.7,4.2
		c-0.6,1.6-0.9,3.3-0.9,5.2c0,1.9,0.3,3.7,0.9,5.3c0.7,1.6,1.6,3,2.7,4.2c1.2,1.2,2.6,2.1,4.2,2.8c1.6,0.7,3.3,1,5.1,1
		c4,0,7.6-1.7,10.7-5.1v14.8l-1.3,0.4c-1.9,0.7-3.7,1.1-5.4,1.5c-1.6,0.3-3.3,0.5-4.9,0.5c-3.3,0-6.5-0.6-9.5-1.8
		c-3-1.3-5.7-3-8-5.3c-2.3-2.3-4.2-5-5.6-8.1c-1.4-3.2-2.1-6.6-2.1-10.2c0-3.7,0.7-7.1,2-10.1c1.4-3.1,3.2-5.7,5.6-8
		c2.3-2.3,5.1-4,8.1-5.2s6.3-1.9,9.6-1.9c1.9,0,3.8,0.2,5.6,0.6c1.9,0.4,3.9,1,5.9,1.8V124.8z M351.8,132.8c0,1.9,0.4,3.7,1.1,5.3
		c0.7,1.6,1.7,3,2.9,4.2c1.2,1.2,2.7,2.1,4.3,2.8c1.6,0.6,3.4,0.9,5.2,0.9c1.8,0,3.5-0.3,5.2-0.9c1.6-0.7,3.1-1.6,4.4-2.8
		c1.3-1.2,2.3-2.6,3-4.2c0.7-1.6,1.1-3.3,1.1-5.3s-0.4-3.7-1.1-5.3c-0.7-1.6-1.7-3-3-4.2c-1.2-1.2-2.7-2.1-4.4-2.7
		c-1.6-0.7-3.3-1-5.2-1c-1.8,0-3.5,0.3-5.2,1c-1.6,0.6-3,1.6-4.3,2.7c-1.2,1.2-2.2,2.6-2.9,4.2C352.2,129.1,351.8,130.9,351.8,132.8
		z M338.8,132.8c0-3.5,0.6-6.9,2-9.9c1.3-3.1,3.2-5.8,5.5-8.1c2.3-2.3,5.1-4.1,8.3-5.4c3.3-1.3,6.9-2,10.7-2c3.9,0,7.5,0.6,10.7,2
		c3.3,1.3,6.1,3,8.4,5.4c2.4,2.3,4.2,5,5.6,8.1c1.3,3,2,6.4,2,9.9s-0.6,6.9-2,10c-1.3,3-3.2,5.7-5.6,8c-2.3,2.3-5.1,4.1-8.4,5.4
		c-3.3,1.3-6.8,1.9-10.7,1.9c-3.9,0-7.5-0.6-10.7-1.9c-3.2-1.3-6-3.1-8.3-5.4c-2.3-2.3-4.2-5-5.5-8
		C339.5,139.7,338.8,136.4,338.8,132.8z M418.1,107.5V158h-13.3v-50.5H418.1z M232.3,107.5V158H219v-50.5H232.3z M432,158v-50.5
		h12.6l24.6,30.9v-30.9h13.3V158h-12.8l-24.5-30.9V158H432z"/>
	<path class="st1" d="M106.5,110.4c4.4,6.2,6.8,13.6,6.7,21.2c0,7.4-2.4,14.8-6.7,20.9l9.2,7c5.8-8,9-17.9,9-27.8
		c0.1-10.5-3.4-20.8-9.7-29.1l-5.3,4.7L106.5,110.4z"/>
	<path class="st0" d="M123.9,165.6L93,142.2c2.2-2.9,3.5-6.4,3.6-10.1c0.1-3.6-0.8-7.2-2.8-10.3l14.8-13.3L124.1,94
		c1-0.9,1.1-2.6,0.1-3.6l-2.1-2.1c-11-11.1-25.8-17.6-41.4-18.1l0.1-8.5c0.1-0.6,0-1.1-0.1-1.7c-0.2-0.6-0.4-1.1-0.8-1.5
		c-0.4-0.4-0.8-0.8-1.4-1c-0.5-0.3-1.1-0.4-1.6-0.4c-0.6,0-1.1,0.1-1.6,0.4c-0.5,0.3-1,0.6-1.4,1C73.4,59,73.1,59.5,73,60
		c-0.2,0.6-0.3,1.1-0.1,1.7l-0.1,8.7c-3.7,0.4-7.4,1.1-11,2.1l0.1-10.9c0.1-0.6,0-1.1-0.1-1.7c-0.2-0.6-0.4-1.1-0.8-1.5
		c-0.4-0.4-0.8-0.8-1.4-1c-0.5-0.3-1.1-0.4-1.6-0.4c-0.6,0-1.1,0.1-1.6,0.4c-0.5,0.3-1,0.6-1.4,1c-0.4,0.4-0.7,0.9-0.8,1.4
		c-0.2,0.6-0.3,1.1-0.1,1.7l-0.2,13.9C41.1,81.2,30.6,91,24.3,103.4c-6.3,12.4-8.3,26.6-5.6,40.2c2.8,13.6,10.1,26,20.8,34.9
		c10.7,8.9,24.1,14,38,14.2l44.9,0.2c1.4,0,2.5-1.1,2.5-2.5v-22.7C124.9,166.9,124.5,166.1,123.9,165.6z M78.4,181.8
		c-11-0.1-21.8-3.8-30.5-10.5c-8.7-6.8-15-16.3-17.8-27c-2.8-10.7-2-22.1,2.2-32.2c4.3-10.2,11.7-18.7,21.3-24.3l-0.1,16.5
		c-0.1,0.6,0,1.1,0.1,1.7c0.2,0.6,0.4,1.1,0.8,1.5c0.4,0.4,0.8,0.8,1.4,1c0.5,0.3,1.1,0.4,1.6,0.4c0.6,0,1.1-0.1,1.6-0.4
		c0.5-0.3,1-0.6,1.4-1c0.4-0.4,0.7-0.9,0.8-1.4c0.2-0.6,0.3-1.1,0.1-1.7l0.1-20.3c5.5-2,11.4-3,17.3-3c10.9,0,21.4,3.6,30,10.1
		c0.6,0.5,0.7,1.4,0.1,1.9l-23.5,21.6c-2.1-0.9-4.5-1.4-6.8-1.4c-2.6,0-5.1,0.5-7.5,1.6c-2.4,1.1-4.5,2.6-6.2,4.6
		c-1.7,1.9-3,4.3-3.7,6.7c-0.8,2.5-0.9,5.1-0.6,7.7c0.4,2.6,1.3,5,2.6,7.2s3.3,4,5.4,5.5c2.2,1.4,4.6,2.3,7.2,2.7
		c2.6,0.4,5.2,0.2,7.7-0.6l30,22.8c0.3,0.3,0.5,0.6,0.5,1l-0.1,8c0,0.7-0.6,1.3-1.3,1.3L78.4,181.8z M85.7,131.5
		c0,1.4-0.4,2.8-1.2,4c-0.8,1.2-1.9,2.1-3.2,2.6c-1.3,0.6-2.8,0.7-4.1,0.4c-1.3-0.3-2.6-0.9-3.6-1.9c-1-1-1.7-2.3-1.9-3.6
		c-0.3-1.4-0.1-2.8,0.4-4.1c0.6-1.3,1.4-2.4,2.6-3.2c1.2-0.8,2.6-1.2,4-1.2c1.9,0,3.7,0.8,5,2.1C84.9,127.8,85.7,129.6,85.7,131.5z"
		/>
</g>
</svg>
